External Loads File
version=1
nRows=77
nColumns=13
Range=5.000000e-03-10 seconds
endheader
time 	forceRightX 	forceRightY 	forceRightZ 	pointRightX 	pointRightY 	pointRightZ 	forceLeftX 	forceLeftY 	forceLeftZ 	pointLeftX 	pointLeftY 	pointLeftZ 		
5.005000 -180.764890 728.712078 -0.000000 0.384683 0.273242 -0.101140 108.604478 18.111871 -0.000000 0.097677 0.362333 -0.340517
5.010000 -165.947730 750.254914 -0.000000 0.381267 0.262517 -0.100847 106.688923 15.061919 -0.000000 0.101565 0.372689 -0.340606
5.015000 -146.770614 770.633678 -0.000000 0.377438 0.252173 -0.100690 103.425891 10.886466 -0.000000 0.105934 0.382995 -0.340264
5.020000 -122.691291 788.523084 -0.000000 0.372839 0.242059 -0.100402 98.723176 5.479804 -0.000000 0.110941 0.393129 -0.340249
5.025000 -95.211001 802.116180 -0.000000 0.367771 0.232404 -0.100210 92.497448 -0.969553 -0.000000 0.116499 0.402968 -0.340325
5.030000 -63.790684 809.950119 -0.000000 0.362241 0.223115 -0.100027 84.694784 -8.477264 -0.000000 0.123123 0.412538 -0.341604
5.035000 -31.408780 810.428572 -0.000000 0.356237 0.214374 -0.099835 75.325511 -16.604917 -0.000000 0.129713 0.421794 -0.341499
5.040000 1.580968 802.646078 -0.000000 0.349822 0.206013 -0.099707 64.506877 -25.166891 -0.000000 0.136665 0.430667 -0.341407
5.045000 33.842368 786.093733 -0.000000 0.343059 0.198295 -0.099655 52.485183 -33.847670 -0.000000 0.144045 0.439256 -0.340651
5.050000 64.825678 760.716270 -0.000000 0.335786 0.191054 -0.099412 39.540147 -42.338094 -0.000000 0.151991 0.447282 -0.340772
5.055000 93.544175 726.887017 -0.000000 0.328472 0.184309 -0.099250 25.998456 -50.206744 -0.000000 0.160800 0.454891 -0.341184
5.060000 116.616440 685.849438 -0.000000 0.320864 0.178346 -0.099050 12.436172 -56.909709 -0.000000 0.168899 0.462166 -0.340479
5.065000 136.443276 638.498455 -0.000000 0.312923 0.172763 -0.098925 -0.934927 -62.032748 -0.000000 0.177657 0.468576 -0.340427
5.070000 152.007686 586.460068 -0.000000 0.304800 0.167838 -0.098796 -13.618391 -64.957076 -0.000000 0.186515 0.474557 -0.340668
5.075000 164.344052 531.090312 -0.000000 0.296445 0.163682 -0.098580 -25.231785 -65.081433 -0.000000 0.195955 0.479829 -0.340484
5.080000 173.289584 474.047622 -0.000000 0.287766 0.160051 -0.098442 -35.219459 -62.072808 -0.000000 0.205291 0.484558 -0.340510
5.085000 179.597752 416.607493 -0.000000 0.278748 0.157185 -0.098332 -43.202442 -55.996506 -0.000000 0.214696 0.488635 -0.340600
5.090000 183.421913 360.021621 -0.000000 0.269459 0.155051 -0.098288 -48.931275 -47.327344 -0.000000 0.223837 0.492147 -0.340958
5.095000 185.822010 304.744029 -0.000000 0.259827 0.153531 -0.098257 -52.538455 -36.525080 -0.000000 0.233253 0.494919 -0.341013
5.100000 186.198789 251.704167 -0.000000 0.250112 0.152700 -0.098322 -54.174372 -24.137658 -0.000000 0.242349 0.496979 -0.341204
5.105000 184.821866 201.014286 -0.000000 0.240376 0.152488 -0.098343 -54.270522 -10.356581 -0.000000 0.251388 0.498447 -0.341486
5.110000 181.463066 152.763807 -0.000000 0.230670 0.153010 -0.098381 -53.307208 4.737504 -0.000000 0.260250 0.498961 -0.342038
5.115000 175.755724 107.044765 -0.000000 0.221059 0.154129 -0.098383 -51.855612 21.115979 -0.000000 0.268638 0.498923 -0.342478
5.120000 167.544307 63.812651 -0.000000 0.211758 0.155943 -0.098489 -50.571417 38.850098 -0.000000 0.276813 0.498222 -0.342483
5.125000 156.736382 23.414633 -0.000000 0.202901 0.158310 -0.098331 -50.191912 57.994006 -0.000000 0.284707 0.496697 -0.342901
5.130000 143.577155 -13.782257 -0.000000 0.194083 0.161278 -0.098623 -51.351743 78.719673 -0.000000 0.292271 0.494403 -0.343289
5.135000 128.601621 -46.963929 -0.000000 0.185641 0.164800 -0.098652 -54.709358 101.150038 -0.000000 0.299448 0.491436 -0.343732
5.140000 112.589352 -75.658679 -0.000000 0.177438 0.168942 -0.098678 -60.629495 125.558479 -0.000000 0.306349 0.487618 -0.344238
5.145000 96.469413 -99.282349 -0.000000 0.169458 0.173634 -0.098744 -69.471810 152.111382 -0.000000 0.312917 0.483330 -0.344740
5.150000 81.020965 -117.505014 -0.000000 0.161700 0.178928 -0.098788 -81.226899 180.966573 -0.000000 0.319189 0.478003 -0.345215
5.155000 66.904922 -130.065195 -0.000000 0.154049 0.184887 -0.098711 -95.640466 212.137377 -0.000000 0.325198 0.471727 -0.345645
5.160000 54.911095 -136.781411 -0.000000 0.146787 0.191313 -0.098702 -112.575201 245.289232 -0.000000 0.330954 0.464808 -0.346056
5.165000 45.465610 -137.860084 -0.000000 0.139819 0.198254 -0.098757 -131.245185 280.050696 -0.000000 0.336526 0.457201 -0.346374
5.170000 38.884054 -133.716736 -0.000000 0.133226 0.205766 -0.098747 -150.687026 315.844047 -0.000000 0.341768 0.448590 -0.346432
5.175000 35.550948 -124.948864 -0.000000 0.127008 0.213758 -0.098781 -170.462569 351.706961 -0.000000 0.346912 0.439944 -0.346617
5.180000 35.480912 -112.422896 -0.000000 0.121199 0.222153 -0.098841 -189.918468 386.852919 -0.000000 0.351581 0.430784 -0.346648
5.185000 38.538185 -97.123488 -0.000000 0.115823 0.230877 -0.098657 -208.639663 420.614372 -0.000000 0.356044 0.421482 -0.346564
5.190000 44.313072 -80.138463 -0.000000 0.110986 0.240166 -0.098787 -225.712582 452.851341 -0.000000 0.360020 0.411651 -0.346485
5.195000 52.515340 -62.418310 -0.000000 0.106947 0.249675 -0.098784 -241.361991 483.095756 -0.000000 0.363491 0.401521 -0.346249
5.200000 62.531349 -44.976549 -0.000000 0.103345 0.259606 -0.098886 -254.379290 511.792581 -0.000000 0.366709 0.391178 -0.346117
5.205000 73.913539 -28.598602 -0.000000 0.100473 0.269672 -0.098859 -265.067590 538.832117 -0.000000 0.369375 0.380494 -0.346047
5.210000 86.085123 -14.025859 -0.000000 0.098128 0.280008 -0.098907 -273.539584 564.390495 -0.000000 0.371587 0.369922 -0.345925
5.215000 98.382050 -2.076882 -0.000000 0.096409 0.290507 -0.098958 -278.974854 589.234255 -0.000000 0.373326 0.358904 -0.345806
5.220000 110.091319 6.760887 -0.000000 0.095262 0.301219 -0.099129 -281.918808 613.526973 -0.000000 0.374511 0.347842 -0.345696
5.225000 120.394270 12.194375 -0.000000 0.094749 0.311989 -0.099234 -282.563831 637.545094 -0.000000 0.375210 0.336758 -0.345507
5.230000 128.516153 14.024024 -0.000000 0.094889 0.322989 -0.099386 -279.817931 661.913339 -0.000000 0.375312 0.325507 -0.345217
5.235000 133.779768 12.720209 -0.000000 0.095660 0.334029 -0.099575 -274.309465 686.222527 -0.000000 0.374885 0.314422 -0.345103
5.240000 135.714415 8.843965 -0.000000 0.097137 0.344906 -0.099743 -265.814859 710.202754 -0.000000 0.373913 0.303454 -0.345199
5.245000 134.073830 2.855534 -0.000000 0.099209 0.355935 -0.099899 -252.866280 733.779056 -0.000000 0.372196 0.292615 -0.344859
5.250000 128.818364 -4.375936 -0.000000 0.102023 0.366754 -0.099983 -235.882396 755.965501 -0.000000 0.369845 0.281955 -0.344704
5.255000 120.162517 -12.093443 -0.000000 0.105296 0.377432 -0.100198 -215.001576 775.858928 -0.000000 0.367033 0.271592 -0.344492
5.260000 108.502938 -19.763705 -0.000000 0.109297 0.387974 -0.100386 -189.611198 792.773716 -0.000000 0.363505 0.261504 -0.344220
5.265000 94.413490 -26.758732 -0.000000 0.113891 0.398164 -0.100492 -160.807628 805.653119 -0.000000 0.359499 0.251700 -0.343944
5.270000 78.539794 -32.849938 -0.000000 0.119143 0.408147 -0.100319 -128.331648 813.910587 -0.000000 0.354919 0.242141 -0.343742
5.275000 61.649627 -37.780249 -0.000000 0.124552 0.417983 -0.101073 -94.095537 816.695528 -0.000000 0.349817 0.233041 -0.343465
5.280000 44.427672 -41.633313 -0.000000 0.130734 0.427430 -0.101390 -58.042834 813.618849 -0.000000 0.344298 0.224166 -0.343223
5.285000 27.607151 -44.413614 -0.000000 0.137399 0.436475 -0.101575 -22.060655 804.256972 -0.000000 0.338271 0.215880 -0.343020
5.290000 11.783250 -46.249615 -0.000000 0.144448 0.445277 -0.102060 13.276473 788.586871 -0.000000 0.331891 0.207922 -0.342918
5.295000 -2.484573 -47.275089 -0.000000 0.151736 0.453431 -0.101977 45.881567 766.913743 -0.000000 0.325123 0.200431 -0.342717
5.300000 -14.885077 -47.701762 -0.000000 0.159339 0.461013 -0.102973 75.217175 739.900884 -0.000000 0.318007 0.193453 -0.342592
5.305000 -25.303208 -47.683133 -0.000000 0.167459 0.467969 -0.102598 101.181218 708.372528 -0.000000 0.310577 0.186950 -0.342497
5.310000 -33.667963 -47.328098 -0.000000 0.175482 0.474439 -0.103628 122.284058 673.505107 -0.000000 0.302949 0.180911 -0.342356
5.315000 -40.257934 -46.471990 -0.000000 0.184024 0.480498 -0.103806 140.540572 635.997548 -0.000000 0.294889 0.175078 -0.342326
5.320000 -45.187466 -44.976050 -0.000000 0.192796 0.485804 -0.103986 154.613457 597.189148 -0.000000 0.286530 0.170309 -0.342255
5.325000 -48.750212 -42.484054 -0.000000 0.201704 0.490409 -0.104039 165.390362 558.046534 -0.000000 0.277896 0.166012 -0.342234
5.330000 -51.232987 -38.571695 -0.000000 0.210859 0.494530 -0.104181 173.645891 519.456658 -0.000000 0.269020 0.162376 -0.342129
5.335000 -52.884140 -32.809768 -0.000000 0.220166 0.497941 -0.104293 179.947431 482.175011 -0.000000 0.259818 0.159328 -0.342071
5.340000 -53.889844 -24.796055 -0.000000 0.229544 0.500651 -0.104453 184.680203 446.762032 -0.000000 0.250333 0.157027 -0.341899
5.345000 -54.370144 -14.183969 -0.000000 0.238957 0.502665 -0.104772 188.072780 413.557579 -0.000000 0.240706 0.155382 -0.341810
5.350000 -54.383340 -0.728351 -0.000000 0.248305 0.503850 -0.104719 190.192326 382.687187 -0.000000 0.231044 0.154398 -0.341633
5.355000 -53.900156 15.740305 -0.000000 0.257866 0.504253 -0.104759 191.532905 353.744137 -0.000000 0.221346 0.154182 -0.341412
5.360000 -52.835153 35.012347 -0.000000 0.267030 0.504243 -0.104991 191.375202 326.625393 -0.000000 0.211736 0.154812 -0.341230
5.365000 -51.108431 56.820600 -0.000000 0.275939 0.503395 -0.105028 189.941330 300.487968 -0.000000 0.202132 0.155993 -0.341095
5.370000 -48.824288 80.741435 -0.000000 0.284579 0.501865 -0.105135 186.839976 274.770471 -0.000000 0.192768 0.157801 -0.340909
5.375000 -46.196368 106.513494 -0.000000 0.292957 0.499485 -0.105168 181.987409 248.954022 -0.000000 0.183595 0.160339 -0.340760
5.380000 -43.674620 134.009022 -0.000000 0.300966 0.496385 -0.105023 175.084252 223.152501 -0.000000 0.174815 0.163449 -0.340511
5.385000 -41.569253 163.326662 -0.000000 0.308671 0.492459 -0.104912 166.500058 197.502802 -0.000000 0.166318 0.167160 -0.340305
